<svg xmlns="http://www.w3.org/2000/svg" xmlns:xlink="http://www.w3.org/1999/xlink" version="1.1" x="0px" y="0px" viewBox="0 0 91 90.9" enable-background="new 0 0 91 90.9" xml:space="preserve" style="fill: rgb(0, 0, 0);">
<g>
	<g id="__id10_smaltzxbth"><path d="M61.9,39.1c0.5,1.2,0.8,2.5,1,3.8l12.5-3.4c-0.6-1.1-1-2.4-1-3.8L61.9,39.1z" style="fill: rgb(238, 238, 238);"></path></g>
	<g id="__id11_smaltzxbth"><path d="M30.3,68.8c1.3,0.4,2.5,1.1,3.5,2l4.9-8.7c-1.3-0.5-2.4-1.2-3.5-2L30.3,68.8z" style="fill: rgb(238, 238, 238);"></path></g>
	<g id="__id12_smaltzxbth"><path d="M34.7,31.8l-8.6-8.6c-0.8,1.1-1.7,2-2.8,2.8l8.5,8.5C32.7,33.5,33.6,32.6,34.7,31.8z" style="fill: rgb(238, 238, 238);"></path></g>
</g>
<g id="__id13_smaltzxbth"><path d="M33.8,70.7c-1-0.8-2.2-1.5-3.5-2c-1.2-0.4-2.4-0.6-3.7-0.6c-6.3,0-11.4,5.1-11.4,11.4  c0,6.3,5.1,11.4,11.4,11.4c6.3,0,11.4-5.1,11.4-11.4C38,76,36.4,72.8,33.8,70.7z" style="fill: rgb(44, 56, 74);"></path></g>
<g id="__id14_smaltzxbth"><path d="M82.7,27.3c-4.6,0-8.3,3.7-8.3,8.3c0,0.1,0,0.1,0,0.2c0,1.4,0.4,2.7,1,3.8c1.4,2.6,4.1,4.3,7.2,4.3  c4.6,0,8.3-3.7,8.3-8.3S87.3,27.3,82.7,27.3z" style="fill: rgb(255, 160, 0);"></path></g>
<g id="__id15_smaltzxbth"><path d="M14.5,0C6.5,0,0,6.5,0,14.5S6.5,29,14.5,29c3.3,0,6.4-1.1,8.8-3c1.1-0.8,2-1.8,2.8-2.8  c1.8-2.4,2.9-5.4,2.9-8.7C29,6.5,22.5,0,14.5,0z" style="fill: rgb(255, 202, 40);"></path></g>
<g id="__id16_smaltzxbth"><path d="M63,42.9c-0.2-1.3-0.6-2.6-1-3.8C59.3,32.6,53,28,45.5,28c-4.1,0-7.8,1.4-10.8,3.7c-1,0.8-2,1.7-2.8,2.8  c-2.5,3.1-4,7-4,11.2c0,5.9,2.9,11.1,7.4,14.4c1.1,0.8,2.3,1.5,3.5,2c2.1,0.9,4.4,1.4,6.8,1.4c9.8,0,17.7-7.9,17.7-17.7  C63.2,44.8,63.1,43.8,63,42.9z" style="fill: rgb(245, 124, 0);"></path></g>
</svg>